# AST/ASF file generated using VICON BodyLanguage
# -----------------------------------------------
:version 1.10
:name VICON
:units
  mass 1.0
  length 0.45
  angle deg
:documentation
   .ast/.asf automatically generated from VICON data using
   VICON BodyBuilder and BodyLanguage model FoxedUp or BRILLIANT.MOD
:root
   order TX TY TZ RX RY RZ
   axis XYZ
   position 0 0 0  
   orientation 0 0 0 
:bonedata
  begin
     id 1 
     name lhipjoint
     direction 0.528046 -0.759594 0.379717 
     length 2.39752 
     axis 0 0 0  XYZ
  end
  begin
     id 2 
     name lfemur
     direction 0.34202 -0.939693 0  
     length 7.31175  
     axis 0 0 20  XYZ
    dof rx ry rz
    limits (-160.0 20.0)
           (-70.0 70.0)
           (-60.0 70.0)
  end
  begin
     id 3 
     name ltibia
     direction 0.34202 -0.939693 0   
     length 7.52482   
     axis 0 0 20   XYZ
    dof rx
    limits (-10.0 170.0)
  end
  begin
     id 4 
     name lfoot
     direction 0.0675379 -0.185559 0.980309   
     length 2.00961   
     axis -90 7.62852e-016 20   XYZ
    dof rx rz
    limits (-45.0 90.0)
           (-70.0 20.0)
  end
  begin
     id 5 
     name ltoes
     direction 1.5352e-011 -4.22286e-011 1   
     length 1.01383   
     axis -90 7.62852e-016 20   XYZ
    dof rx
    limits (-90.0 20.0)
  end
  begin
     id 6 
     name rhipjoint
     direction -0.510274 -0.769251 0.384544   
     length 2.36742  
     axis 0 0 0  XYZ 
  end
  begin
     id 7 
     name rfemur
     direction -0.34202 -0.939693 0   
     length 7.45325   
     axis 0 0 -20   XYZ
    dof rx ry rz
    limits (-160.0 20.0)
           (-70.0 70.0)
           (-70.0 60.0)
  end
  begin
     id 8 
     name rtibia
     direction -0.34202 -0.939693 0   
     length 7.49587   
     axis 0 0 -20   XYZ
    dof rx
    limits (-10.0 170.0)
 end
 begin
     id 9 
     name rfoot
     direction -0.106475 -0.292536 0.950308   
     length 2.20898  
     axis -90 -7.62852e-016 -20   XYZ
    dof rx rz
    limits (-45.0 90.0)
           (-20.0 70.0)
  end
  begin
     id 10 
     name rtoes
     direction -1.53597e-011 -4.22023e-011 1   
     length 1.10065   
     axis -90 -7.62852e-016 -20   XYZ
    dof rx
    limits (-90.0 20.0)
  end
  begin
     id 11 
     name lowerback
     direction 0.0260024 0.998026 -0.0571652   
     length 2.11214   
     axis 0 0 0   XYZ
    dof rx ry rz
    limits (-20.0 45.0)
           (-30.0 30.0)
           (-30.0 30.0)
  end
  begin
     id 12 
     name upperback
     direction 0.0216202 0.999542 -0.0211766   
     length 2.11689   
     axis 0 0 0   XYZ
    dof rx ry rz
    limits (-20.0 45.0)
           (-30.0 30.0)
           (-30.0 30.0)
  end
  begin
     id 13 
     name thorax
     direction 0.00883312 0.999944 0.00589057   
     length 2.11821   
     axis 0 0 0   XYZ
    dof rx ry rz
    limits (-20.0 45.0)
           (-30.0 30.0)
           (-30.0 30.0)
  end
  begin
     id 14 
     name lowerneck
     direction -0.059386 0.994433 0.0870401   
     length 1.81176   
     axis 0 0 0   XYZ
    dof rx ry rz
    limits (-20.0 45.0)
           (-30.0 30.0)
           (-30.0 30.0)
  end
  begin
     id 15 
     name upperneck
     direction 0.0506457 0.97328 -0.223967   
     length 1.82382   
     axis 0 0 0   XYZ
    dof rx ry rz
    limits (-20.0 45.0)
           (-30.0 30.0)
           (-30.0 30.0)
  end
  begin
     id 16
     name head
     direction 0.0205902 0.996147 -0.0852487  
     length 1.84805  
     axis 0 0 0   XYZ
    dof rx ry rz
    limits (-20.0 45.0)
           (-30.0 30.0)
           (-30.0 30.0)
  end
  begin
     id 17 
     name lclavicle
     direction 0.949493 0.303881 -0.0782325  
     length 3.60584  
     axis 0 0 0   XYZ
    dof ry rz
    limits (-20.0 10.0)
           (0.0 20.0)
  end
  begin
     id 18 
     name lhumerus
     direction 1 -4.48965e-011 1.48782e-027   
     length 4.95681   
     axis 180 -30 -90   XYZ
    dof rx ry rz
    limits (-60.0 90.0)
           (-90.0 90.0)
           (-90.0 90.0)
  end
  begin
     id 19
     name lradius
     direction 1 -4.48952e-011 2.06528e-027   
     length 3.40915   
     axis 180 -30 -90   XYZ
    dof rx
    limits (-10.0 170.0)
  end
  begin
     id 20
     name lwrist
     direction 1 -4.48964e-011 1.28021e-027   
     length 1.70457   
     axis -1.61767e-015 90 90   XYZ
    dof ry
    limits (-180.0 0.0)
 end
  begin
     id 21 
     name lhand
     direction 1 -4.49094e-011 2.54887e-027   
     length 0.616403   
     axis -1.63363e-015 90 90   XYZ
    dof rx rz
    limits (-90.0 90.0)
           (-45.0 45.0)
  end
  begin
     id 22 
     name lfingers
     direction 1 -4.49002e-011 5.11407e-027   
     length 0.49696   
     axis -3.26723e-015 90 90   XYZ
    dof rx
    limits (0.0 90.0)
  end
  begin
     id 23
     name lthumb
     direction 0.707107 -6.34998e-011 0.707107   
     length 0.713539   
     axis -90 45 -2.25915e-014   XYZ
    dof rx rz
    limits (-45.0 45.0)
           (-45.0 45.0)
  end
  begin
     id 24 
     name rclavicle
     direction -0.937751 0.334612 -0.0930482   
     length 3.46287  
     axis 0 0 0   XYZ 
    dof ry rz
    limits (-10.0 20.0)
           (-20.0 0.0)
  end
  begin
     id 25 
     name rhumerus
     direction -1 -4.48962e-011 3.59972e-027  
     length 5.352   
     axis 180 30 90   XYZ
    dof rx ry rz
    limits (-90.0 60.0)
           (-90.0 90.0)
           (-90.0 90.0)
  end
  begin
     id 26 
     name rradius
     direction -1 -4.48987e-011 -3.76925e-027   
     length 3.43721   
     axis 180 30 90   XYZ
    dof rx
    limits (-10.0 170.0)
  end
  begin
     id 27 
     name rwrist
     direction -1 -4.48943e-011 1.28112e-027   
     length 1.7186   
     axis -1.61767e-015 -90 -90   XYZ
    dof ry
    limits (-180.0 0.0)
  end
  begin
     id 28
     name rhand
     direction -1 -4.49027e-011 2.55483e-027   
     length 0.72009   
     axis -1.63363e-015 -90 -90   XYZ
    dof rx rz
    limits (-90.0 90.0)
           (-45.0 45.0)
  end
  begin
     id 29
     name rfingers
     direction -1 -4.48827e-011 5.14506e-027   
     length 0.580555   
     axis -3.26723e-015 -90 -90   XYZ
    dof rx
    limits (0.0 90.0)
  end
  begin
     id 30
     name rthumb
     direction -0.707107 -6.34936e-011 0.707107   
     length 0.833564   
     axis -90 -45 2.25915e-014   XYZ
    dof rx rz
    limits (-45.0 45.0)
           (-45.0 45.0)
  end
:hierarchy
  begin
    root lhipjoint rhipjoint lowerback
    lhipjoint lfemur
    lfemur ltibia
    ltibia lfoot
    lfoot ltoes
    rhipjoint rfemur
    rfemur rtibia
    rtibia rfoot
    rfoot rtoes
    lowerback upperback
    upperback thorax
    thorax lowerneck lclavicle rclavicle
    lowerneck upperneck
    upperneck head
    lclavicle lhumerus
    lhumerus lradius
    lradius lwrist
    lwrist lhand lthumb
    lhand lfingers
    rclavicle rhumerus
    rhumerus rradius
    rradius rwrist
    rwrist rhand rthumb
    rhand rfingers
  end

#!OML:ASF H:\Terrain\Patient Classification 1\Terrain2\Thursday\justin.ASF
:FULLY-SPECIFIED
:DEGREES
487
root 9.09336 17.751 4.8877 -0.841327 -7.30316 -4.64617
lowerback 3.07786 1.42627 4.73112
upperback 2.09218 2.00508 2.80821
thorax 0.488411 1.02998 0.184089
lowerneck -12.7687 -1.00922 -9.01864
upperneck 39.2455 -0.0216526 3.11712
head 16.1849 -0.935293 2.97842
rclavicle -9.69075e-015 -1.94809e-014
rhumerus -35.2672 -8.14552 -80.0394
rradius 30.8124
rwrist -10.6133
rhand -20.058 10.5662
rfingers 7.12502
rthumb 6.28387 -19.3206
lclavicle -9.69075e-015 -1.94809e-014
lhumerus -36.7689 7.22453 85.2438
lradius 30.0358
lwrist 2.61345
lhand -19.4536 17.1659
lfingers 7.12502
lthumb 6.86731 47.0346
rfemur 1.27555 -0.357996 24.7596
rtibia 49.3328
rfoot 6.0563 3.37447
rtoes 9.15558
lfemur -17.0254 4.7794 -15.3092
ltibia 18.1385
lfoot -3.89953 -8.57189
ltoes -0.805937
488
root 9.10485 17.75 4.95857 -0.882007 -7.25229 -4.5183
lowerback 3.29749 1.34486 4.55786
upperback 2.03458 1.91066 2.79857
thorax 0.297434 0.977608 0.265356
lowerneck -12.917 -0.998814 -9.2051
upperneck 39.3307 -0.0548443 3.42122
head 16.2673 -0.939494 3.14537
rclavicle 4.47266e-015 -1.23246e-014
rhumerus -35.227 -8.15999 -80.0365
rradius 31.2454
rwrist -10.7232
rhand -19.6976 10.7233
rfingers 7.12502
rthumb 6.63175 -19.1528
lclavicle 4.47266e-015 -1.23246e-014
lhumerus -36.7594 6.9622 85.3459
lradius 30.9952
lwrist 2.6152
lhand -16.7645 21.1896
lfingers 7.12502
lthumb 9.46255 50.9572
rfemur 0.188169 -0.42994 24.5508
rtibia 51.3804
rfoot 6.64617 3.25733
rtoes 10.2632
lfemur -16.5235 5.07411 -15.5475
ltibia 17.6046
lfoot -3.65227 -8.76142
ltoes -0.0523605
489
root 9.10411 17.7492 5.00547 -0.599885 -6.71427 -4.47164
lowerback 3.4325 1.07718 4.19383
upperback 1.8369 1.56383 2.90342
thorax -0.00495476 0.794871 0.578856
lowerneck -13.0034 -0.925736 -9.12281
upperneck 39.2498 0.110251 3.23585
head 16.2322 -0.882042 3.07358
rclavicle 2.25124e-014 3.10104e-014
rhumerus -35.1291 -8.01086 -80.0024
rradius 31.6208
rwrist -10.7672
rhand -19.2772 10.5241
rfingers 7.12502
rthumb 7.03762 -19.3389
lclavicle 2.25124e-014 3.10104e-014
lhumerus -36.7089 7.09227 85.2895
lradius 31.764
lwrist 2.11922
lhand -9.58978 28.1119
lfingers 7.12502
lthumb 16.3786 57.4404
rfemur -1.28001 -1.04026 24.5199
rtibia 53.3122
rfoot 7.21944 3.2068
rtoes 10.0328
lfemur -16.6807 5.69532 -15.812
ltibia 17.2667
lfoot -3.01074 -9.75647
ltoes 1.0756
490
root 9.11522 17.7637 5.08759 -0.729953 -6.8111 -4.17725
lowerback 3.43216 0.96983 3.67457
upperback 1.91339 1.40257 3.00172
thorax 0.0547509 0.711694 0.975301
lowerneck -12.7866 -0.80421 -9.16328
upperneck 38.8815 0.351706 3.03815
head 15.968 -0.801485 3.01823
rclavicle 4.17448e-015 3.33958e-014
rhumerus -34.8601 -7.50962 -80.0116
rradius 31.9956
rwrist -11.1583
rhand -19.6978 10.0077
rfingers 7.12502
rthumb 6.63153 -19.8684
lclavicle 4.17448e-015 3.33958e-014
lhumerus -36.5078 7.1267 85.4831
lradius 32.1186
lwrist 2.30933
lhand -15.8992 23.2951
lfingers 7.12502
lthumb 10.2974 53.023
rfemur -2.29172 -1.20353 23.9866
rtibia 55.1417
rfoot 7.46245 3.32593
rtoes 10.3036
lfemur -16.1639 5.89777 -16.2203
ltibia 16.9994
lfoot -2.78015 -9.84095
ltoes 1.88441
491
root 9.12817 17.7771 5.16947 -1.04457 -6.66602 -3.7903
lowerback 3.5175 0.859171 3.24434
upperback 2.09509 1.23937 2.9349
thorax 0.183818 0.629575 1.15261
lowerneck -12.6968 -0.765379 -9.13997
upperneck 38.5669 0.348668 3.13293
head 15.781 -0.775131 3.04348
rclavicle -2.85256e-014 -2.3059e-014
rhumerus -34.4854 -7.623 -80.0445
rradius 32.2846
rwrist -11.6281
rhand -20.0357 10.0944
rfingers 7.12502
rthumb 6.30535 -19.7917
lclavicle -2.85256e-014 -2.3059e-014
lhumerus -36.1224 6.68428 85.7225
lradius 32.9254
lwrist 1.91876
lhand -17.5238 23.9226
lfingers 7.12502
lthumb 8.7299 53.722
rfemur -3.00209 -1.41959 23.3794
rtibia 56.8815
rfoot 6.61817 3.18745
rtoes 10.2404
lfemur -15.3588 5.843 -16.7396
ltibia 16.5334
lfoot -2.65376 -9.91893
ltoes 1.78641
492
root 9.14274 17.793 5.25016 -1.3117 -6.46663 -3.39868
lowerback 3.64033 0.763769 2.96283
upperback 2.26189 1.10331 2.72905
thorax 0.284249 0.561975 1.10262
lowerneck -12.8479 -0.764778 -8.96565
upperneck 38.4347 0.272387 3.23025
head 15.7521 -0.764404 3.03966
rclavicle -1.30701e-014 -1.43125e-014
rhumerus -34.2119 -8.00662 -80.1684
rradius 32.6306
rwrist -12.0848
rhand -19.7772 10.3355
rfingers 7.12502
rthumb 6.55487 -19.543
lclavicle -1.30701e-014 -1.43125e-014
lhumerus -35.6587 6.82155 85.311
lradius 32.8555
lwrist 0.903069
lhand -16.8592 21.6784
lfingers 7.12502
lthumb 9.37123 51.45
rfemur -3.72922 -1.74855 22.8201
rtibia 58.4813
rfoot 4.80013 3.10577
rtoes 8.65773
lfemur -14.5908 5.70636 -17.2892
ltibia 16.0472
lfoot -2.70576 -9.96397
ltoes 1.1861
493
root 9.15226 17.8122 5.32037 -1.41701 -6.37683 -3.25264
lowerback 3.84557 0.656314 2.78463
upperback 2.27718 0.96407 2.68181
thorax 0.182536 0.490232 1.15565
lowerneck -12.9617 -0.695472 -8.81871
upperneck 38.4723 0.399676 3.0858
head 15.7885 -0.711702 2.97353
rclavicle -2.31584e-014 -4.37326e-015
rhumerus -34.0939 -8.07665 -80.2529
rradius 32.9597
rwrist -12.4103
rhand -19.8674 10.2911
rfingers 7.12502
rthumb 6.46782 -19.5901
lclavicle -2.31584e-014 -4.37326e-015
lhumerus -35.3621 6.80989 85.1622
lradius 32.6729
lwrist 1.99876
lhand -17.2411 19.9324
lfingers 7.12502
lthumb 9.00266 49.7203
rfemur -4.68721 -1.9369 22.6214
rtibia 59.9232
rfoot 2.9821 2.82231
rtoes 7.55213
lfemur -14.0458 5.54302 -17.5118
ltibia 15.6737
lfoot -2.71802 -9.85938
ltoes 1.67436
494
root 9.16023 17.8203 5.38206 -1.50349 -6.34604 -3.11912
lowerback 4.0981 0.58717 2.56723
upperback 2.23699 0.878007 2.67506
thorax -0.00324662 0.443907 1.27011
lowerneck -13.062 -0.612798 -8.70919
upperneck 38.5984 0.541974 2.98461
head 15.8661 -0.655156 2.93828
rclavicle -1.19271e-015 1.94809e-014
rhumerus -33.9861 -8.18751 -80.3263
rradius 33.1571
rwrist -13.0603
rhand -20.4316 10.4
rfingers 7.12502
rthumb 5.92318 -19.4972
lclavicle -1.19271e-015 1.94809e-014
lhumerus -35.0452 6.91394 84.9226
lradius 32.8561
lwrist 1.79743
lhand -15.6978 21.4811
lfingers 7.12502
lthumb 10.4917 51.1993
rfemur -5.60058 -2.04058 22.4437
rtibia 61.1537
rfoot 1.01859 2.41385
rtoes 6.88098
lfemur -13.6487 5.47131 -17.6941
ltibia 15.5448
lfoot -2.84873 -9.97288
ltoes 2.03838
495
root 9.17015 17.8352 5.45125 -1.48903 -6.42349 -2.91085
lowerback 4.1183 0.544726 2.29848
upperback 2.25917 0.812062 2.63569
thorax 0.00497827 0.409062 1.38265
lowerneck -13.2186 -0.539394 -8.57203
upperneck 38.5574 0.650475 2.9201
head 15.8735 -0.597947 2.90387
rclavicle 1.90833e-014 -1.19271e-015
rhumerus -33.6979 -8.19419 -80.5305
rradius 33.2809
rwrist -14.204
rhand -21.135 10.8964
rfingers 7.12502
rthumb 5.24395 -19.0187
lclavicle 1.90833e-014 -1.19271e-015
lhumerus -34.5464 7.92046 84.1441
lradius 33.0554
lwrist -1.38828
lhand -11.6797 22.7909
lfingers 7.12502
lthumb 14.3657 52.2738
rfemur -6.59736 -2.09479 22.1909
rtibia 62.1708
rfoot -1.32633 1.93126
rtoes 4.78594
lfemur -13.4252 5.24095 -17.9462
ltibia 15.6997
lfoot -3.18147 -9.94402
ltoes 2.23329
496
root 9.17876 17.8399 5.5224 -1.53108 -6.45987 -3.10523
lowerback 4.10265 0.444931 2.3926
upperback 2.36101 0.677996 2.77139
thorax 0.119049 0.342715 1.47572
lowerneck -13.2373 -0.483772 -8.52619
upperneck 38.3951 0.792417 2.7268
head 15.7868 -0.553507 2.82955
rclavicle -5.26779e-015 9.14409e-015
rhumerus -33.3467 -8.27853 -80.5147
rradius 33.4417
rwrist -14.7518
rhand -21.3986 11.9947
rfingers 7.12502
rthumb 4.98947 -17.9266
lclavicle -5.26779e-015 9.14409e-015
lhumerus -34.0978 8.90549 83.5803
lradius 33.1089
lwrist -4.00003
lhand -9.00084 24.1105
lfingers 7.12502
lthumb 16.9456 53.3913
rfemur -7.45179 -2.11196 22.4848
rtibia 63.0049
rfoot -3.30891 1.33019
rtoes 2.34277
lfemur -13.1554 4.76153 -17.7183
ltibia 15.9427
lfoot -3.39951 -9.53861
ltoes 3.11706
497
root 9.1875 17.8314 5.58815 -1.72225 -6.33551 -3.29934
lowerback 4.24475 0.299859 2.47046
upperback 2.45635 0.490078 2.90846
thorax 0.13904 0.248753 1.58023
lowerneck -13.1963 -0.467415 -8.5507
upperneck 38.3896 0.867108 2.59523
head 15.7714 -0.544848 2.78787
rclavicle -8.00108e-015 1.03368e-014
rhumerus -33.095 -8.54713 -80.3369
rradius 33.7567
rwrist -14.8827
rhand -20.8564 12.8116
rfingers 7.12502
rthumb 5.51304 -17.0967
lclavicle -8.00108e-015 1.03368e-014
lhumerus -33.7733 8.08214 84.1711
lradius 32.8848
lwrist -0.160095
lhand -14.1481 22.4627
lfingers 7.12502
lthumb 11.9863 52.0995
rfemur -8.06057 -2.14154 22.7942
rtibia 63.6453
rfoot -4.78867 0.946278
rtoes 1.52905
lfemur -12.7725 4.49644 -17.5614
ltibia 16.0414
lfoot -3.39361 -9.44116
ltoes 3.86555
498
root 9.19501 17.8291 5.65335 -1.87795 -6.16909 -3.02277
lowerback 4.32151 0.223343 2.16744
upperback 2.52124 0.37815 2.81005
thorax 0.162209 0.190699 1.65318
lowerneck -13.1953 -0.469003 -8.45263
upperneck 38.4846 0.815895 2.63856
head 15.8218 -0.550332 2.78355
rclavicle -3.03147e-015 2.8625e-014
rhumerus -32.854 -8.89062 -80.333
rradius 34.0635
rwrist -15.0946
rhand -20.7408 12.6011
rfingers 7.12502
rthumb 5.62459 -17.3042
lclavicle -3.03147e-015 2.8625e-014
lhumerus -33.3624 7.25872 84.574
lradius 32.6097
lwrist 3.13818
lhand -18.4023 20.2243
lfingers 7.12502
lthumb 7.88205 50.0574
rfemur -8.70837 -2.12764 22.5476
rtibia 64.1317
rfoot -6.05973 0.79422
rtoes 1.99062
lfemur -12.4451 4.2616 -17.9559
ltibia 16.0821
lfoot -3.47917 -9.5012
ltoes 4.19891
499
root 9.19872 17.8504 5.71841 -1.87352 -6.06547 -3.02021
lowerback 4.28883 0.164772 2.15741
upperback 2.52437 0.29834 2.79887
thorax 0.18469 0.150868 1.65068
lowerneck -13.0535 -0.428194 -8.40633
upperneck 38.5119 0.834753 2.66931
head 15.7984 -0.532502 2.79076
rclavicle -2.31584e-014 -1.11319e-014
rhumerus -32.6684 -9.23482 -80.3355
rradius 34.2192
rwrist -15.0292
rhand -21.1546 11.6614
rfingers 7.12502
rthumb 5.22504 -18.2542
lclavicle -2.31584e-014 -1.11319e-014
lhumerus -32.9432 7.68205 84.2168
lradius 32.9219
lwrist 2.12228
lhand -16.9435 21.8995
lfingers 7.12502
lthumb 9.28986 51.6749
rfemur -9.44895 -2.09976 22.6138
rtibia 64.3963
rfoot -7.22918 0.726124
rtoes 4.30787
lfemur -12.0701 3.81485 -17.9626
ltibia 15.9536
lfoot -3.72992 -9.25579
ltoes 4.14128
500
root 9.20523 17.8698 5.77823 -1.89697 -6.09824 -3.21128
lowerback 4.43474 0.0752532 2.26117
upperback 2.51915 0.189247 2.93772
thorax 0.0995459 0.0958907 1.73975
lowerneck -13.1214 -0.429687 -8.5297
upperneck 38.64 0.919555 2.55802
head 15.8781 -0.536576 2.7824
rclavicle 6.65929e-015 7.95139e-016
rhumerus -32.5718 -9.10155 -80.3433
rradius 34.5021
rwrist -15.3457
rhand -21.1145 10.3622
rfingers 7.12502
rthumb 5.26382 -19.5524
lclavicle 6.65929e-015 7.95139e-016
lhumerus -32.6469 8.4495 83.8497
lradius 33.3098
lwrist 1.12428
lhand -15.4682 23.2774
lfingers 7.12502
lthumb 10.7132 52.9843
rfemur -10.1624 -2.00813 22.8659
rtibia 64.4973
rfoot -8.35515 0.754814
rtoes 5.98854
lfemur -11.5762 3.51021 -17.7408
ltibia 15.6949
lfoot -3.99596 -8.87671
ltoes 3.13893
